<svg width="65" height="64" viewBox="0 0 65 64" fill="none" xmlns="http://www.w3.org/2000/svg">
<path d="M38.1533 26.6667H51.1667V21.8667H41.5133L36.18 12.9867C35.38 11.6533 33.94 10.7467 32.2867 10.7467C31.8067 10.7467 31.38 10.8267 30.9533 10.96L16.5 15.4667V29.3333H21.3V19.5467L26.9267 17.7867L16.5 58.6667H21.3L28.9533 37.04L35.1667 45.3333V58.6667H39.9667V41.5733L33.3267 29.4667L35.2733 21.8133M37.8333 10.1333C40.5 10.1333 42.6333 8 42.6333 5.33333C42.6333 2.66667 40.5 0.533333 37.8333 0.533333C35.1667 0.533333 33.0333 2.66667 33.0333 5.33333C33.0333 8 35.1667 10.1333 37.8333 10.1333Z" fill="#0B851E"/>
</svg>
