<svg width="350" height="48" viewBox="0 0 350 48" fill="none" xmlns="http://www.w3.org/2000/svg">
<g opacity="0.4">
<rect x="0.5" y="0.5" width="349" height="47" rx="15.5" fill="white"/>
<rect x="0.5" y="0.5" width="349" height="47" rx="15.5" stroke="#444444"/>
<path d="M22.6719 21.9929C22.6188 21.5223 22.4001 21.1577 22.0156 20.8991C21.6312 20.6373 21.1473 20.5064 20.5639 20.5064C20.1463 20.5064 19.785 20.5727 19.4801 20.7053C19.1752 20.8345 18.9382 21.0135 18.7692 21.2422C18.6035 21.4676 18.5206 21.7244 18.5206 22.0128C18.5206 22.2547 18.5769 22.4635 18.6896 22.6392C18.8056 22.8149 18.9564 22.9624 19.142 23.0817C19.331 23.1977 19.5331 23.2955 19.7486 23.375C19.964 23.4512 20.1712 23.5142 20.37 23.5639L21.3643 23.8224C21.6892 23.902 22.0223 24.0097 22.3636 24.1456C22.705 24.2815 23.0215 24.4605 23.3132 24.6825C23.6049 24.9046 23.8402 25.1797 24.0192 25.5078C24.2015 25.8359 24.2926 26.2287 24.2926 26.6861C24.2926 27.2628 24.1435 27.7749 23.8452 28.2223C23.5502 28.6697 23.121 29.0227 22.5575 29.2812C21.9974 29.5398 21.3196 29.669 20.5241 29.669C19.7618 29.669 19.1023 29.5481 18.5455 29.3061C17.9886 29.0642 17.5528 28.7211 17.2379 28.277C16.9231 27.8295 16.7491 27.2992 16.7159 26.6861H18.2571C18.2869 27.054 18.4063 27.3606 18.6151 27.6058C18.8272 27.8478 19.0973 28.0284 19.4254 28.1477C19.7569 28.2637 20.1198 28.3217 20.5142 28.3217C20.9484 28.3217 21.3345 28.2538 21.6726 28.1179C22.014 27.9787 22.2824 27.7865 22.478 27.5412C22.6735 27.2926 22.7713 27.0026 22.7713 26.6712C22.7713 26.3696 22.6851 26.1226 22.5128 25.9304C22.3438 25.7382 22.1134 25.5791 21.8217 25.4531C21.5334 25.3272 21.2069 25.2161 20.8423 25.12L19.6392 24.7919C18.8239 24.5698 18.1776 24.2434 17.7003 23.8125C17.2263 23.3816 16.9893 22.8116 16.9893 22.1023C16.9893 21.5156 17.1484 21.0036 17.4666 20.5661C17.7848 20.1286 18.2157 19.7888 18.7592 19.5469C19.3028 19.3016 19.916 19.179 20.5987 19.179C21.2881 19.179 21.8963 19.3 22.4233 19.5419C22.9536 19.7839 23.3712 20.117 23.6761 20.5412C23.9811 20.9621 24.1402 21.446 24.1534 21.9929H22.6719ZM29.3002 29.6541C28.5479 29.6541 27.8999 29.4934 27.3564 29.1719C26.8161 28.8471 26.3985 28.3913 26.1035 27.8047C25.8118 27.2147 25.666 26.5237 25.666 25.7315C25.666 24.9493 25.8118 24.2599 26.1035 23.6634C26.3985 23.0668 26.8095 22.6011 27.3365 22.2663C27.8668 21.9316 28.4866 21.7642 29.1958 21.7642C29.6267 21.7642 30.0443 21.8355 30.4487 21.978C30.853 22.1205 31.216 22.3442 31.5375 22.6491C31.859 22.9541 32.1125 23.3501 32.2981 23.8374C32.4837 24.3213 32.5765 24.9096 32.5765 25.6023V26.1293H26.5062V25.0156H31.1199C31.1199 24.6245 31.0403 24.2782 30.8812 23.9766C30.7221 23.6716 30.4984 23.4313 30.21 23.2557C29.925 23.08 29.5903 22.9922 29.2058 22.9922C28.7882 22.9922 28.4236 23.0949 28.112 23.3004C27.8038 23.5026 27.5652 23.7678 27.3961 24.0959C27.2304 24.4207 27.1475 24.7737 27.1475 25.1548V26.0249C27.1475 26.5353 27.237 26.9695 27.416 27.3274C27.5983 27.6854 27.8519 27.9588 28.1767 28.1477C28.5015 28.3333 28.881 28.4261 29.3152 28.4261C29.5969 28.4261 29.8538 28.3864 30.0858 28.3068C30.3178 28.224 30.5183 28.1013 30.6873 27.9389C30.8564 27.7765 30.9856 27.576 31.0751 27.3374L32.4821 27.5909C32.3694 28.0052 32.1672 28.3681 31.8755 28.6797C31.5872 28.9879 31.2243 29.2282 30.7868 29.4006C30.3526 29.5696 29.8571 29.6541 29.3002 29.6541ZM36.4482 29.669C35.9643 29.669 35.5268 29.5795 35.1357 29.4006C34.7446 29.2183 34.4347 28.9548 34.206 28.6101C33.9806 28.2654 33.8679 27.8428 33.8679 27.3423C33.8679 26.9115 33.9508 26.5568 34.1165 26.2784C34.2822 26 34.5059 25.7796 34.7876 25.6172C35.0694 25.4548 35.3842 25.3321 35.7322 25.2493C36.0803 25.1664 36.4349 25.1035 36.7962 25.0604C37.2536 25.0073 37.6248 24.9643 37.9098 24.9311C38.1948 24.8946 38.402 24.8366 38.5312 24.7571C38.6605 24.6776 38.7251 24.5483 38.7251 24.3693V24.3345C38.7251 23.9003 38.6025 23.5639 38.3572 23.3253C38.1153 23.0866 37.754 22.9673 37.2734 22.9673C36.773 22.9673 36.3786 23.0784 36.0902 23.3004C35.8052 23.5192 35.608 23.7628 35.4986 24.0312L34.1016 23.7131C34.2673 23.2491 34.5092 22.8745 34.8274 22.5895C35.1489 22.3011 35.5185 22.0923 35.9361 21.9631C36.3537 21.8305 36.7929 21.7642 37.2536 21.7642C37.5585 21.7642 37.8816 21.8007 38.223 21.8736C38.5677 21.9432 38.8892 22.0724 39.1875 22.2614C39.4891 22.4503 39.736 22.7204 39.9283 23.0717C40.1205 23.4197 40.2166 23.8722 40.2166 24.429V29.5H38.7649V28.456H38.7053C38.6091 28.6482 38.465 28.8371 38.2727 29.0227C38.0805 29.2083 37.8336 29.3625 37.532 29.4851C37.2304 29.6077 36.8691 29.669 36.4482 29.669ZM36.7713 28.4759C37.1823 28.4759 37.5336 28.3946 37.8253 28.2322C38.1203 28.0698 38.344 27.8577 38.4964 27.5959C38.6522 27.3307 38.7301 27.0473 38.7301 26.7457V25.7614C38.6771 25.8144 38.5743 25.8641 38.4219 25.9105C38.2727 25.9536 38.102 25.9917 37.9098 26.0249C37.7176 26.0547 37.5303 26.0829 37.348 26.1094C37.1657 26.1326 37.0133 26.1525 36.8906 26.169C36.6023 26.2055 36.3388 26.2668 36.1001 26.353C35.8648 26.4392 35.6759 26.5634 35.5334 26.7259C35.3942 26.8849 35.3246 27.0971 35.3246 27.3622C35.3246 27.7301 35.4605 28.0085 35.7322 28.1974C36.004 28.383 36.3504 28.4759 36.7713 28.4759ZM42.1966 29.5V21.8636H43.6333V23.0767H43.7129C43.8521 22.6657 44.0974 22.3426 44.4487 22.1072C44.8033 21.8686 45.2044 21.7493 45.6518 21.7493C45.7446 21.7493 45.854 21.7526 45.9799 21.7592C46.1092 21.7659 46.2103 21.7741 46.2832 21.7841V23.206C46.2235 23.1894 46.1175 23.1712 45.965 23.1513C45.8126 23.1281 45.6601 23.1165 45.5076 23.1165C45.1563 23.1165 44.8431 23.1911 44.568 23.3402C44.2962 23.486 44.0808 23.6899 43.9217 23.9517C43.7626 24.2102 43.6831 24.5052 43.6831 24.8366V29.5H42.1966ZM50.5128 29.6541C49.7737 29.6541 49.1373 29.4867 48.6037 29.152C48.0734 28.8139 47.6657 28.3482 47.3807 27.755C47.0956 27.1617 46.9531 26.4822 46.9531 25.7166C46.9531 24.9411 47.099 24.2566 47.3906 23.6634C47.6823 23.0668 48.0933 22.6011 48.6236 22.2663C49.1539 21.9316 49.7786 21.7642 50.4979 21.7642C51.0779 21.7642 51.5949 21.8719 52.049 22.0874C52.5031 22.2995 52.8693 22.5978 53.1477 22.9822C53.4295 23.3667 53.5968 23.8158 53.6499 24.3295H52.2031C52.1236 23.9716 51.9413 23.6634 51.6562 23.4048C51.3745 23.1463 50.9967 23.017 50.5227 23.017C50.1084 23.017 49.7455 23.1264 49.4339 23.3452C49.1257 23.5606 48.8854 23.8688 48.7131 24.2699C48.5407 24.6676 48.4545 25.1383 48.4545 25.6818C48.4545 26.2386 48.5391 26.7192 48.7081 27.1236C48.8771 27.5279 49.1158 27.8411 49.424 28.0632C49.7356 28.2853 50.1018 28.3963 50.5227 28.3963C50.8045 28.3963 51.0597 28.3449 51.2884 28.2422C51.5204 28.1361 51.7143 27.9853 51.87 27.7898C52.0291 27.5942 52.1402 27.3589 52.2031 27.0838H53.6499C53.5968 27.5777 53.4361 28.0185 53.1676 28.4062C52.8991 28.794 52.5395 29.099 52.0888 29.321C51.6413 29.5431 51.116 29.6541 50.5128 29.6541ZM56.726 24.9659V29.5H55.2395V19.3182H56.7061V23.1065H56.8006C56.9796 22.6955 57.253 22.3691 57.6209 22.1271C57.9888 21.8852 58.4694 21.7642 59.0627 21.7642C59.5864 21.7642 60.0437 21.8719 60.4348 22.0874C60.8292 22.3028 61.1342 22.6243 61.3496 23.0518C61.5684 23.4761 61.6777 24.0064 61.6777 24.6428V29.5H60.1912V24.8217C60.1912 24.2616 60.0471 23.8274 59.7587 23.5192C59.4703 23.2076 59.0693 23.0518 58.5556 23.0518C58.2042 23.0518 57.8894 23.1264 57.611 23.2756C57.3359 23.4247 57.1188 23.6435 56.9597 23.9318C56.8039 24.2169 56.726 24.5616 56.726 24.9659Z" fill="#444444"/>
<path d="M319.5 15C321.224 15 322.877 15.6848 324.096 16.9038C325.315 18.1228 326 19.7761 326 21.5C326 23.11 325.41 24.59 324.44 25.73L324.71 26H325.5L330.5 31L329 32.5L324 27.5V26.71L323.73 26.44C322.55 27.4465 321.051 27.9996 319.5 28C317.776 28 316.123 27.3152 314.904 26.0962C313.685 24.8772 313 23.2239 313 21.5C313 19.7761 313.685 18.1228 314.904 16.9038C316.123 15.6848 317.776 15 319.5 15ZM319.5 17C317 17 315 19 315 21.5C315 24 317 26 319.5 26C322 26 324 24 324 21.5C324 19 322 17 319.5 17Z" fill="#1E1E1E"/>
</g>
</svg>
