<svg width="24" height="24" viewBox="0 0 24 24" fill="none" xmlns="http://www.w3.org/2000/svg">
<path d="M12 24C5.3724 24 0 18.6276 0 12C0 5.3724 5.3724 0 12 0C18.6276 0 24 5.3724 24 12C24 18.6276 18.6276 24 12 24ZM7.2 13.2C7.2 14.473 7.70571 15.6939 8.60589 16.5941C9.50606 17.4943 10.727 18 12 18C13.273 18 14.4939 17.4943 15.3941 16.5941C16.2943 15.6939 16.8 14.473 16.8 13.2H7.2ZM7.2 10.8C7.67739 10.8 8.13523 10.6104 8.47279 10.2728C8.81036 9.93523 9 9.47739 9 9C9 8.52261 8.81036 8.06477 8.47279 7.72721C8.13523 7.38964 7.67739 7.2 7.2 7.2C6.72261 7.2 6.26477 7.38964 5.92721 7.72721C5.58964 8.06477 5.4 8.52261 5.4 9C5.4 9.47739 5.58964 9.93523 5.92721 10.2728C6.26477 10.6104 6.72261 10.8 7.2 10.8ZM16.8 10.8C17.2774 10.8 17.7352 10.6104 18.0728 10.2728C18.4104 9.93523 18.6 9.47739 18.6 9C18.6 8.52261 18.4104 8.06477 18.0728 7.72721C17.7352 7.38964 17.2774 7.2 16.8 7.2C16.3226 7.2 15.8648 7.38964 15.5272 7.72721C15.1896 8.06477 15 8.52261 15 9C15 9.47739 15.1896 9.93523 15.5272 10.2728C15.8648 10.6104 16.3226 10.8 16.8 10.8Z" fill="#0B851E"/>
</svg>
