<svg width="105" height="20" viewBox="0 0 105 20" fill="none" xmlns="http://www.w3.org/2000/svg">
<path d="M10.7143 14.3917L16.2322 17.5L14.7679 11.6417L19.6429 7.7L13.2233 7.18333L10.7143 1.66666L8.20541 7.18333L1.78577 7.7L6.65184 11.6417L5.19648 17.5L10.7143 14.3917Z" fill="#FDC50C"/>
<path d="M32.1429 14.3917L37.6608 17.5L36.1965 11.6417L41.0715 7.7L34.6519 7.18333L32.1429 1.66666L29.634 7.18333L23.2144 7.7L28.0804 11.6417L26.6251 17.5L32.1429 14.3917Z" fill="#FDC50C"/>
<path d="M52.8571 14.3917L58.0071 17.5L56.6405 11.6417L61.1905 7.7L55.1988 7.18333L52.8571 1.66666L50.5155 7.18333L44.5238 7.7L49.0655 11.6417L47.7071 17.5L52.8571 14.3917Z" fill="#FDC50C"/>
<g opacity="0.4">
<path d="M72.8571 12.825L69.7238 14.7167L70.5488 11.15L67.7821 8.75L71.4321 8.44166L72.8571 5.075L74.2821 8.44166L77.9321 8.75L75.1655 11.15L75.9905 14.7167M81.1905 7.7L75.1988 7.19166L72.8571 1.66666L70.5155 7.19166L64.5238 7.7L69.0655 11.6417L67.7071 17.5L72.8571 14.3917L78.0071 17.5L76.6405 11.6417L81.1905 7.7Z" fill="#FDC50C"/>
</g>
<path d="M72.8571 1.66666L70.5155 7.18333L64.5238 7.7L69.0655 11.6417L67.7071 17.5L72.8571 14.3917V1.66666Z" fill="#FDC50C"/>
<g opacity="0.4">
<path d="M93.5715 12.825L90.2144 14.7167L91.0983 11.15L88.134 8.75L92.0447 8.44166L93.5715 5.075L95.0983 8.44166L99.009 8.75L96.0447 11.15L96.9287 14.7167M102.5 7.7L96.0804 7.19166L93.5715 1.66666L91.0626 7.19166L84.6429 7.7L89.509 11.6417L88.0537 17.5L93.5715 14.3917L99.0894 17.5L97.6251 11.6417L102.5 7.7Z" fill="#FDC50C"/>
</g>
</svg>
